<svg xmlns="http://www.w3.org/2000/svg" viewBox="0 0 64 64">
  <defs>
    <linearGradient id="favGrad" x1="0%" y1="0%" x2="100%" y2="100%">
      <stop offset="0%" stop-color="#FFB627"></stop>
      <stop offset="100%" stop-color="#FF6B1A"></stop>
    </linearGradient>
  </defs>
  <rect x="0" y="0" width="64" height="64" rx="12" fill="#0A1B2E"></rect>
  <g transform="translate(32,32)">
    <g stroke="url(#favGrad)" stroke-width="2.5" stroke-linecap="round" fill="none">
      <line x1="0" y1="-22" x2="0" y2="-16"></line>
      <line x1="11" y1="-19" x2="8" y2="-14"></line>
      <line x1="19" y1="-11" x2="14" y2="-8"></line>
      <line x1="22" y1="0" x2="16" y2="0"></line>
      <line x1="19" y1="11" x2="14" y2="8"></line>
      <line x1="11" y1="19" x2="8" y2="14"></line>
      <line x1="0" y1="22" x2="0" y2="16"></line>
      <line x1="-11" y1="19" x2="-8" y2="14"></line>
      <line x1="-19" y1="11" x2="-14" y2="8"></line>
      <line x1="-22" y1="0" x2="-16" y2="0"></line>
      <line x1="-19" y1="-11" x2="-14" y2="-8"></line>
      <line x1="-11" y1="-19" x2="-8" y2="-14"></line>
    </g>
    <circle cx="0" cy="0" r="11" fill="url(#favGrad)"></circle>
  </g>
</svg>