<svg xmlns="http://www.w3.org/2000/svg" viewBox="0 0 200 200">
  <defs>
    <linearGradient id="sunGrad" x1="0%" y1="0%" x2="100%" y2="100%">
      <stop offset="0%" stop-color="#FFB627"></stop>
      <stop offset="100%" stop-color="#FF6B1A"></stop>
    </linearGradient>
  </defs>
  <g transform="translate(100,100)">
    <g stroke="url(#sunGrad)" stroke-width="6" stroke-linecap="round" fill="none">
      <line x1="0" y1="-72" x2="0" y2="-52"></line>
      <line x1="36" y1="-62.4" x2="26" y2="-45"></line>
      <line x1="62.4" y1="-36" x2="45" y2="-26"></line>
      <line x1="72" y1="0" x2="52" y2="0"></line>
      <line x1="62.4" y1="36" x2="45" y2="26"></line>
      <line x1="36" y1="62.4" x2="26" y2="45"></line>
      <line x1="0" y1="72" x2="0" y2="52"></line>
      <line x1="-36" y1="62.4" x2="-26" y2="45"></line>
      <line x1="-62.4" y1="36" x2="-45" y2="26"></line>
      <line x1="-72" y1="0" x2="-52" y2="0"></line>
      <line x1="-62.4" y1="-36" x2="-45" y2="-26"></line>
      <line x1="-36" y1="-62.4" x2="-26" y2="-45"></line>
    </g>
    <circle cx="0" cy="0" r="38" fill="url(#sunGrad)"></circle>
    <circle cx="-10" cy="-10" r="14" fill="#FFD37A" opacity="0.55"></circle>
  </g>
</svg>