<svg xmlns="http://www.w3.org/2000/svg" viewBox="0 0 700 240" font-family="&#39;Poppins&#39;, system-ui, sans-serif">
  <defs>
    <linearGradient id="sunGrad" x1="0%" y1="0%" x2="100%" y2="100%">
      <stop offset="0%" stop-color="#FFB627"></stop>
      <stop offset="100%" stop-color="#FF6B1A"></stop>
    </linearGradient>
    <linearGradient id="textGrad" x1="0%" y1="0%" x2="100%" y2="0%">
      <stop offset="0%" stop-color="#FF6B1A"></stop>
      <stop offset="100%" stop-color="#FFB627"></stop>
    </linearGradient>
  </defs>
  <rect x="0" y="0" width="700" height="240" rx="20" fill="#0A1B2E"></rect>
  <g transform="translate(120,120)">
    <g stroke="url(#sunGrad)" stroke-width="6" stroke-linecap="round" fill="none">
      <line x1="0" y1="-72" x2="0" y2="-52"></line>
      <line x1="36" y1="-62.4" x2="26" y2="-45"></line>
      <line x1="62.4" y1="-36" x2="45" y2="-26"></line>
      <line x1="72" y1="0" x2="52" y2="0"></line>
      <line x1="62.4" y1="36" x2="45" y2="26"></line>
      <line x1="36" y1="62.4" x2="26" y2="45"></line>
      <line x1="0" y1="72" x2="0" y2="52"></line>
      <line x1="-36" y1="62.4" x2="-26" y2="45"></line>
      <line x1="-62.4" y1="36" x2="-45" y2="26"></line>
      <line x1="-72" y1="0" x2="-52" y2="0"></line>
      <line x1="-62.4" y1="-36" x2="-45" y2="-26"></line>
      <line x1="-36" y1="-62.4" x2="-26" y2="-45"></line>
    </g>
    <circle cx="0" cy="0" r="38" fill="url(#sunGrad)"></circle>
    <circle cx="-10" cy="-10" r="14" fill="#FFD37A" opacity="0.55"></circle>
  </g>
  <text x="225" y="125" font-size="68" font-weight="800" letter-spacing="2" fill="url(#textGrad)">SUNADH</text>
  <text x="227" y="168" font-size="22" font-weight="400" letter-spacing="13" fill="#FAFAF7">TECHNOLOGIES</text>
  <rect x="227" y="180" width="270" height="3" rx="1.5" fill="url(#textGrad)"></rect>
</svg>