<svg xmlns="http://www.w3.org/2000/svg" viewBox="0 0 700 200" font-family="&#39;Poppins&#39;, system-ui, sans-serif">
  <defs>
    <linearGradient id="sunGrad2" x1="0%" y1="0%" x2="100%" y2="100%">
      <stop offset="0%" stop-color="#FFB627"></stop>
      <stop offset="100%" stop-color="#FF6B1A"></stop>
    </linearGradient>
  </defs>
  <g transform="translate(100,100)">
    <g stroke="url(#sunGrad2)" stroke-width="5" stroke-linecap="round" fill="none">
      <line x1="0" y1="-60" x2="0" y2="-44"></line>
      <line x1="30" y1="-52" x2="22" y2="-38"></line>
      <line x1="52" y1="-30" x2="38" y2="-22"></line>
      <line x1="60" y1="0" x2="44" y2="0"></line>
      <line x1="52" y1="30" x2="38" y2="22"></line>
      <line x1="30" y1="52" x2="22" y2="38"></line>
      <line x1="0" y1="60" x2="0" y2="44"></line>
      <line x1="-30" y1="52" x2="-22" y2="38"></line>
      <line x1="-52" y1="30" x2="-38" y2="22"></line>
      <line x1="-60" y1="0" x2="-44" y2="0"></line>
      <line x1="-52" y1="-30" x2="-38" y2="-22"></line>
      <line x1="-30" y1="-52" x2="-22" y2="-38"></line>
    </g>
    <circle cx="0" cy="0" r="32" fill="url(#sunGrad2)"></circle>
  </g>
  <text x="190" y="105" font-size="58" font-weight="800" letter-spacing="2" fill="#0A1B2E">SUNADH</text>
  <text x="192" y="142" font-size="18" font-weight="500" letter-spacing="11" fill="#4B5563">TECHNOLOGIES</text>
</svg>